<?xml version="1.0" encoding="UTF-8"?><svg xmlns="http://www.w3.org/2000/svg" viewBox="0 0 482.2 148.2"><defs><style>.d{fill:none;opacity:.3;}.e{fill:#69f;}.f{fill:#fff;}.g{fill:#363636;}</style></defs><g id="a"/><g id="b"><g id="c"><g><rect class="d" width="482.2" height="148.2"/><g><g><path class="g" d="M189.3,62.5v.6h11.1v5.8h-11.1v22.8h-7.2v-28.9c0-8.1,4.3-13.8,13.2-13.8,2.7,0,5.9,.5,7.4,1.3v6c-1.5-.7-4-1.2-6-1.2-4.1,.1-7.4,2.4-7.4,7.4Z"/><path class="g" d="M202.1,77.4c0-8.7,6.9-15,15.5-15s15.5,6.2,15.5,15-6.9,15-15.5,15-15.5-6.3-15.5-15Zm23.9,0c0-5-3.8-8.7-8.4-8.7s-8.3,3.7-8.3,8.7,3.8,8.7,8.3,8.7,8.4-3.7,8.4-8.7Z"/><path class="g" d="M266.3,73.7v18h-7.2v-17.1c0-3.8-2.2-5.9-5.6-5.9-2.6,0-5.2,1.5-6.9,3.9v19.1h-7.3v-28.6h7.2v3.5c2.1-2.5,5.6-4.2,9.2-4.2,6.2,.1,10.6,4,10.6,11.3Z"/><path class="g" d="M291.4,85.5v6c-1.6,.5-3.9,.8-5.9,.8-8.9,0-11.7-6.5-11.7-13.1v-20.2l6.5-4.1h.7v8.2h9.6v5.8h-9.6v10.4c0,4,1.9,6.8,5.9,6.8,1.6,.1,3.1-.2,4.5-.6Z"/><path class="g" d="M317.6,63.1h7.3v28.6h-7.3v-2.9c-2.2,2.1-5.6,3.5-9.2,3.5-7.6,0-14-5.8-14-15s6.4-15,14-15c3.6,0,7.1,1.4,9.2,3.5v-2.7Zm0,20v-11.4c-2.1-2-5-3.2-7.7-3.2-4.5,0-8.3,3.4-8.4,8.9,.1,5.5,3.9,8.9,8.4,8.9,2.7,0,5.6-1.2,7.7-3.2Z"/><path class="g" d="M360.1,73.7v18h-7.2v-17.1c0-3.8-2.2-5.9-5.6-5.9-2.6,0-5.2,1.5-6.9,3.9v19.1h-7.2v-28.6h7.2v3.5c2.1-2.5,5.6-4.2,9.2-4.2,6.1,.1,10.5,4,10.5,11.3Z"/><path class="g" d="M393.8,76.8c0,.6-.1,1.3-.1,1.8h-20.8c.6,5.2,4.1,8.1,9.2,8.1,3,0,7.1-1,10-2.2v5.6c-2.4,1.3-6.8,2.4-10.8,2.4-9.7,0-15.2-6.6-15.2-15.2,0-9.2,6.2-14.7,14.4-14.7,8.6-.1,13.4,5.9,13.3,14.2Zm-20.5-2.8h13.8c-.5-3.6-2.8-5.8-6.5-5.8s-6.4,2.2-7.3,5.8Z"/><path class="g" d="M399.7,80.8v-31.1h7.2v30.4c0,3.9,1.7,5.9,4.6,5.9,.6,0,1.3-.1,2.1-.2v6.2c-1.2,.2-2.2,.3-3.2,.3-7.7,.1-10.7-5.2-10.7-11.5Z"/><path class="g" d="M418,80.8v-31.1h7.2v30.4c0,3.9,1.7,5.9,4.6,5.9,.6,0,1.3-.1,2.1-.2v6.2c-1.2,.2-2.2,.3-3.2,.3-7.6,.1-10.7-5.2-10.7-11.5Z"/><path class="g" d="M462.2,76.8c0,.6-.1,1.3-.1,1.8h-20.8c.6,5.2,4.1,8.1,9.2,8.1,3,0,7.1-1,10-2.2v5.6c-2.4,1.3-6.8,2.4-10.8,2.4-9.7,0-15.2-6.6-15.2-15.2,0-9.2,6.2-14.7,14.4-14.7,8.6-.1,13.4,5.9,13.3,14.2Zm-20.5-2.8h13.8c-.5-3.6-2.8-5.8-6.5-5.8s-6.4,2.2-7.3,5.8Z"/></g><g><path class="e" d="M42.3,72.5c-8.7,.1-16.4,4.2-21.4,10.6,4,24.1,24.1,42.9,48.9,44.8v-27.5c0-15.3-12.3-27.7-27.5-27.9Z"/><path class="e" d="M41.9,64h.8c10.9,.2,20.6,5.3,27.1,13.1v-10c0-17.5-12.5-32.2-29.1-35.5-12,9.5-19.9,23.9-20.6,40.3,6.1-4.8,13.6-7.7,21.8-7.9h0Z"/><path class="f" d="M89.6,86.1c3.1,0,11.9,1.1,11.9,11.4h8.4c0-6.2-2.2-11.4-6.4-15-3.6-3-8.4-4.8-13.8-4.8h-.4c-4.2,.1-8,1.5-11.2,3.7v-14.3c0-18.8-11.6-34.9-28.1-41.4-3.4,1.7-6.5,3.7-9.4,6,16.6,3.3,29.1,18,29.1,35.5v10c-6.5-7.8-16.2-12.8-27.1-13.1h-.8c-8.2,.2-15.7,3.1-21.8,7.9v2.2c0,3.1,.3,6.1,.7,9,5-6.3,12.8-10.4,21.4-10.6,15.2,.2,27.5,12.6,27.5,27.9v27.5c1.4,.1,2.9,.2,4.3,.2s2.9-.1,4.3-.2v-30.4c.2-6.3,5.2-11.4,11.4-11.5Z"/><path class="e" d="M128.1,74c0-29.8-24.2-54-54-54-8.6,0-16.8,2-24,5.6,16.4,6.6,28.1,22.7,28.1,41.4v14.3c3.2-2.3,7-3.7,11.2-3.7h.4c5.3,.1,10.2,1.8,13.8,4.8,4.2,3.6,6.4,8.8,6.4,15h-8.4c0-10.3-8.9-11.4-11.9-11.4-6.2,.1-11.2,5.2-11.2,11.4v30.4c8.4-.7,16.3-3.2,23.2-7.3v-6.1h8.4c11-9.9,18-24.3,18-40.4Zm-18.1,36.2h-8.4v-8.4h8.4v8.4Z"/><rect class="f" x="101.5" y="101.8" width="8.4" height="8.4"/><path class="f" d="M101.5,120.6c3-1.8,5.8-3.8,8.4-6.1h-8.4v6.1Z"/></g></g></g></g></g></svg>